<?xml version="1.0" encoding="UTF-8" standalone="no"?>
<!DOCTYPE svg PUBLIC "-//W3C//DTD SVG 1.1//EN"
 "http://www.w3.org/Graphics/SVG/1.1/DTD/svg11.dtd">
<!-- Generated by graphviz version 5.0.0 (20220707.1540)
 -->
<!-- Title: dependencies Pages: 1 -->
<svg width="471pt" height="174pt"
 viewBox="0.00 0.00 471.00 173.80" xmlns="http://www.w3.org/2000/svg" xmlns:xlink="http://www.w3.org/1999/xlink">
<g id="graph0" class="graph" transform="scale(1 1) rotate(0) translate(4 169.8)">
<title>dependencies</title>
<polygon fill="white" stroke="transparent" points="-4,4 -4,-169.8 467,-169.8 467,4 -4,4"/>
<text text-anchor="middle" x="231.5" y="-8.2" font-family="sans-serif" font-size="14.00">dependencies</text>
<g id="clust1" class="cluster">
<title>cluster_AppModule</title>
<polygon fill="none" stroke="black" stroke-dasharray="1,5" points="8,-32.8 8,-157.8 455,-157.8 455,-32.8 8,-32.8"/>
</g>
<g id="clust3" class="cluster">
<title>cluster_AppModule_imports</title>
<polygon fill="none" stroke="black" points="16,-40.8 16,-92.8 447,-92.8 447,-40.8 16,-40.8"/>
</g>
<!-- AuthModule -->
<g id="node1" class="node">
<title>AuthModule</title>
<polygon fill="#8dd3c7" stroke="black" points="438.55,-84.8 435.55,-88.8 414.55,-88.8 411.55,-84.8 351.45,-84.8 351.45,-48.8 438.55,-48.8 438.55,-84.8"/>
<text text-anchor="middle" x="395" y="-62.6" font-family="Times,serif" font-size="14.00">AuthModule</text>
</g>
<!-- AppModule -->
<g id="node5" class="node">
<title>AppModule</title>
<polygon fill="#8dd3c7" stroke="black" points="274.66,-149.8 271.66,-153.8 250.66,-153.8 247.66,-149.8 191.34,-149.8 191.34,-113.8 274.66,-113.8 274.66,-149.8"/>
<text text-anchor="middle" x="233" y="-127.6" font-family="Times,serif" font-size="14.00">AppModule</text>
</g>
<!-- AuthModule&#45;&gt;AppModule -->
<g id="edge1" class="edge">
<title>AuthModule&#45;&gt;AppModule</title>
<path fill="none" stroke="black" d="M395,-84.91C395,-104.14 395,-131.8 395,-131.8 395,-131.8 284.72,-131.8 284.72,-131.8"/>
<polygon fill="black" stroke="black" points="284.72,-128.3 274.72,-131.8 284.72,-135.3 284.72,-128.3"/>
</g>
<!-- PostsModule -->
<g id="node2" class="node">
<title>PostsModule</title>
<polygon fill="#8dd3c7" stroke="black" points="333.62,-84.8 330.62,-88.8 309.62,-88.8 306.62,-84.8 244.38,-84.8 244.38,-48.8 333.62,-48.8 333.62,-84.8"/>
<text text-anchor="middle" x="289" y="-62.6" font-family="Times,serif" font-size="14.00">PostsModule</text>
</g>
<!-- PostsModule&#45;&gt;AppModule -->
<g id="edge2" class="edge">
<title>PostsModule&#45;&gt;AppModule</title>
<path fill="none" stroke="black" d="M259.63,-84.91C259.63,-84.91 259.63,-103.79 259.63,-103.79"/>
<polygon fill="black" stroke="black" points="256.13,-103.79 259.63,-113.79 263.13,-103.79 256.13,-103.79"/>
</g>
<!-- PrismaModule -->
<g id="node3" class="node">
<title>PrismaModule</title>
<polygon fill="#8dd3c7" stroke="black" points="226.44,-84.8 223.44,-88.8 202.44,-88.8 199.44,-84.8 127.56,-84.8 127.56,-48.8 226.44,-48.8 226.44,-84.8"/>
<text text-anchor="middle" x="177" y="-62.6" font-family="Times,serif" font-size="14.00">PrismaModule</text>
</g>
<!-- PrismaModule&#45;&gt;AppModule -->
<g id="edge3" class="edge">
<title>PrismaModule&#45;&gt;AppModule</title>
<path fill="none" stroke="black" d="M208.69,-84.91C208.69,-84.91 208.69,-103.79 208.69,-103.79"/>
<polygon fill="black" stroke="black" points="205.19,-103.79 208.69,-113.79 212.19,-103.79 205.19,-103.79"/>
</g>
<!-- UserModule -->
<g id="node4" class="node">
<title>UserModule</title>
<polygon fill="#8dd3c7" stroke="black" points="109.99,-84.8 106.99,-88.8 85.99,-88.8 82.99,-84.8 24.01,-84.8 24.01,-48.8 109.99,-48.8 109.99,-84.8"/>
<text text-anchor="middle" x="67" y="-62.6" font-family="Times,serif" font-size="14.00">UserModule</text>
</g>
<!-- UserModule&#45;&gt;AppModule -->
<g id="edge4" class="edge">
<title>UserModule&#45;&gt;AppModule</title>
<path fill="none" stroke="black" d="M67,-84.91C67,-104.14 67,-131.8 67,-131.8 67,-131.8 181.11,-131.8 181.11,-131.8"/>
<polygon fill="black" stroke="black" points="181.11,-135.3 191.11,-131.8 181.11,-128.3 181.11,-135.3"/>
</g>
</g>
</svg>
